<svg width="24" height="24" viewBox="0 0 24 24" fill="none" xmlns="http://www.w3.org/2000/svg">
<path d="M6 12C6 12.5523 5.55229 13 5 13C4.44772 13 4 12.5523 4 12C4 11.4477 4.44772 11 5 11C5.55229 11 6 11.4477 6 12Z" fill="#666666"/>
<path d="M10 12C10 12.5523 9.55229 13 9 13C8.44772 13 8 12.5523 8 12C8 11.4477 8.44772 11 9 11C9.55229 11 10 11.4477 10 12Z" fill="#666666"/>
<path d="M13 13C13.5523 13 14 12.5523 14 12C14 11.4477 13.5523 11 13 11C12.4477 11 12 11.4477 12 12C12 12.5523 12.4477 13 13 13Z" fill="#666666"/>
<path d="M18 12C18 12.5523 17.5523 13 17 13C16.4477 13 16 12.5523 16 12C16 11.4477 16.4477 11 17 11C17.5523 11 18 11.4477 18 12Z" fill="#666666"/>
<path d="M5 17C5.55229 17 6 16.5523 6 16C6 15.4477 5.55229 15 5 15C4.44772 15 4 15.4477 4 16C4 16.5523 4.44772 17 5 17Z" fill="#666666"/>
<path d="M10 16C10 16.5523 9.55229 17 9 17C8.44772 17 8 16.5523 8 16C8 15.4477 8.44772 15 9 15C9.55229 15 10 15.4477 10 16Z" fill="#666666"/>
<path d="M13 17C13.5523 17 14 16.5523 14 16C14 15.4477 13.5523 15 13 15C12.4477 15 12 15.4477 12 16C12 16.5523 12.4477 17 13 17Z" fill="#666666"/>
<path fill-rule="evenodd" clip-rule="evenodd" d="M7.35719 2.53247e-07H14.6428C15.7266 -9.52191e-06 16.6007 -1.75089e-05 17.3086 0.0578185C18.0375 0.117368 18.6777 0.243181 19.27 0.544968C20.2108 1.02434 20.9757 1.78924 21.455 2.73005C21.7568 3.32234 21.8826 3.96253 21.9422 4.69138C22 5.39923 22 6.27334 22 7.35706V14.6428C22 15.7266 22 16.6008 21.9422 17.3086C21.8826 18.0375 21.7568 18.6777 21.455 19.27C20.9757 20.2108 20.2108 20.9757 19.27 21.455C18.6777 21.7568 18.0375 21.8826 17.3086 21.9422C16.6008 22 15.7267 22 14.6429 22H7.35717C6.27344 22 5.39923 22 4.69138 21.9422C3.96253 21.8826 3.32234 21.7568 2.73005 21.455C1.78924 20.9757 1.02434 20.2108 0.544968 19.27C0.243181 18.6777 0.117368 18.0375 0.0578185 17.3086C-1.75089e-05 16.6007 -9.52192e-06 15.7266 2.5324e-07 14.6428V7.35719C-9.52195e-06 6.27341 -1.74046e-05 5.39925 0.0578185 4.69138C0.117368 3.96253 0.243181 3.32234 0.544968 2.73005C1.02434 1.78924 1.78924 1.02434 2.73005 0.544968C3.32234 0.243181 3.96253 0.117368 4.69138 0.0578185C5.39925 -1.74046e-05 6.27341 -9.52194e-06 7.35719 2.53247e-07ZM4.85424 2.05118C4.24907 2.10062 3.90138 2.19279 3.63803 2.32698C3.07354 2.6146 2.6146 3.07354 2.32698 3.63803C2.19279 3.90138 2.10062 4.24907 2.05118 4.85424C2.02462 5.17923 2.01185 5.55292 2.0057 6H19.9943C19.9882 5.55292 19.9754 5.17923 19.9488 4.85424C19.8994 4.24907 19.8072 3.90138 19.673 3.63803C19.3854 3.07354 18.9265 2.6146 18.362 2.32698C18.0986 2.19279 17.7509 2.10062 17.1458 2.05118C16.5289 2.00078 15.7366 2 14.6 2H7.4C6.26339 2 5.47108 2.00078 4.85424 2.05118ZM20 8H2V14.6C2 15.7366 2.00078 16.5289 2.05118 17.1458C2.10062 17.7509 2.19279 18.0986 2.32698 18.362C2.6146 18.9265 3.07354 19.3854 3.63803 19.673C3.90138 19.8072 4.24907 19.8994 4.85424 19.9488C5.47108 19.9992 6.26339 20 7.4 20H14.6C15.7366 20 16.5289 19.9992 17.1458 19.9488C17.7509 19.8994 18.0986 19.8072 18.362 19.673C18.9265 19.3854 19.3854 18.9265 19.673 18.362C19.8072 18.0986 19.8994 17.7509 19.9488 17.1458C19.9992 16.5289 20 15.7366 20 14.6V8Z" fill="#666666"/>
</svg>
