<svg width="24" height="24" viewBox="0 0 24 24" fill="none" xmlns="http://www.w3.org/2000/svg">
<path fill-rule="evenodd" clip-rule="evenodd" d="M13.9799 2.28318C13.993 2.19067 13.9998 2.09613 13.9998 2C13.9998 0.895431 13.1044 0 11.9998 0C10.8953 0 9.99983 0.895431 9.99983 2C9.99983 2.09613 10.0066 2.19067 10.0197 2.28318C7.53582 3.01069 5.58651 5.07554 5.08193 7.72458L4.06093 13.0848C4.05494 13.1163 4.04326 13.1464 4.02648 13.1736L2.02398 16.4277C0.793942 18.4265 2.23199 21 4.57895 21H8.99983C8.99983 22.6569 10.343 24 11.9998 24C13.6567 24 14.9998 22.6569 14.9998 21H19.4207C21.7677 21 23.2057 18.4265 21.9757 16.4277L19.9732 13.1736C19.9564 13.1464 19.9447 13.1163 19.9387 13.0848L18.9177 7.72458C18.4131 5.07554 16.4638 3.01069 13.9799 2.28318ZM11.9998 4C9.57886 4 7.49959 5.7206 7.0466 8.0988L6.02561 13.459C5.97416 13.7292 5.87392 13.9876 5.7298 14.2218L3.7273 17.4759C3.31728 18.1422 3.79663 19 4.57895 19H19.4207C20.203 19 20.6824 18.1422 20.2724 17.4759L18.2699 14.2218C18.1257 13.9876 18.0255 13.7292 17.974 13.459L16.953 8.0988C16.5001 5.7206 14.4208 4 11.9998 4ZM11.9998 22C12.5521 22 12.9998 21.5523 12.9998 21H10.9998C10.9998 21.5523 11.4475 22 11.9998 22Z" fill="black"/>
</svg>
