<svg width="16" height="17" viewBox="0 0 16 17" fill="none" xmlns="http://www.w3.org/2000/svg">
<path d="M14.7999 12.2557L9.33431 2.76379C9.19773 2.53124 9.00275 2.33843 8.76869 2.20445C8.53463 2.07048 8.26963 2 7.99994 2C7.73025 2 7.46524 2.07048 7.23118 2.20445C6.99713 2.33843 6.80214 2.53124 6.66556 2.76379L1.19994 12.2557C1.06852 12.4806 0.999268 12.7364 0.999268 12.9969C0.999268 13.2574 1.06852 13.5132 1.19994 13.7382C1.33477 13.9721 1.52942 14.166 1.76391 14.2999C1.99841 14.4338 2.2643 14.5028 2.53431 14.5H13.4656C13.7354 14.5026 14.001 14.4334 14.2353 14.2996C14.4695 14.1657 14.664 13.9719 14.7987 13.7382C14.9303 13.5134 14.9998 13.2576 15 12.9971C15.0002 12.7366 14.9312 12.4807 14.7999 12.2557ZM7.49994 7.00004C7.49994 6.86743 7.55262 6.74026 7.64638 6.64649C7.74015 6.55272 7.86733 6.50004 7.99994 6.50004C8.13255 6.50004 8.25972 6.55272 8.35349 6.64649C8.44726 6.74026 8.49994 6.86743 8.49994 7.00004V9.50004C8.49994 9.63265 8.44726 9.75983 8.35349 9.85359C8.25972 9.94736 8.13255 10 7.99994 10C7.86733 10 7.74015 9.94736 7.64638 9.85359C7.55262 9.75983 7.49994 9.63265 7.49994 9.50004V7.00004ZM7.99994 12.5C7.8516 12.5 7.7066 12.4561 7.58326 12.3736C7.45992 12.2912 7.36379 12.1741 7.30703 12.0371C7.25026 11.9 7.23541 11.7492 7.26435 11.6037C7.29329 11.4582 7.36472 11.3246 7.46961 11.2197C7.5745 11.1148 7.70813 11.0434 7.85362 11.0145C7.99911 10.9855 8.14991 11.0004 8.28695 11.0571C8.42399 11.1139 8.54113 11.21 8.62354 11.3334C8.70595 11.4567 8.74994 11.6017 8.74994 11.75C8.74994 11.949 8.67092 12.1397 8.53027 12.2804C8.38962 12.421 8.19885 12.5 7.99994 12.5Z" fill="#DD0F00"/>
</svg>
