<svg width="19" height="18" viewBox="0 0 19 18" fill="none" xmlns="http://www.w3.org/2000/svg">
<path fill-rule="evenodd" clip-rule="evenodd" d="M8 0.75C4.27208 0.75 1.25 3.77208 1.25 7.5C1.25 11.2279 4.27208 14.25 8 14.25C9.59376 14.25 11.0585 13.6976 12.2133 12.7739L16.4697 17.0303C16.7626 17.3232 17.2374 17.3232 17.5303 17.0303C17.8232 16.7374 17.8232 16.2626 17.5303 15.9697L13.2739 11.7133C14.1976 10.5585 14.75 9.09376 14.75 7.5C14.75 3.77208 11.7279 0.75 8 0.75ZM2.75 7.5C2.75 4.60051 5.10051 2.25 8 2.25C10.8995 2.25 13.25 4.60051 13.25 7.5C13.25 10.3995 10.8995 12.75 8 12.75C5.10051 12.75 2.75 10.3995 2.75 7.5Z" fill="black" fill-opacity="0.5"/>
</svg>
